# xmcd
#
# Track frame offsets:
#	150
#	10590
#	24512
#	34573
#	49959
#	60376
#	75393
#	91794
#	107424
#	119004
#	135926
#	150274
#
# Disc length: 2234 seconds
#
# Revision: 1
# Processed by: cddbd v1.4PL0 Copyright (c) Steve Scherf et al.
# Submitted via: EasyCDDAExtractor 5.1.0
#
DISCID=7908b80c
DTITLE=Meramec Jets - Full Plane
DYEAR=2002
DGENRE=Bluegrass
TTITLE0=Full Plane
TTITLE1=Nellie Cain
TTITLE2=Shoe Goes on the Other Foot
TTITLE3=Grandpa's Shoes
TTITLE4=Amanda Jewell
TTITLE5=Smokey Mountain Memories
TTITLE6=Gold Pan Jack
TTITLE7=River Flows
TTITLE8=Little Girl of Mine in Tennessee
TTITLE9=Brown Mountain Light
TTITLE10=Over the Rainbow
TTITLE11=House of the Rising Sun
EXTD=
EXTT0=
EXTT1=
EXTT2=
EXTT3=
EXTT4=
EXTT5=
EXTT6=
EXTT7=
EXTT8=
EXTT9=
EXTT10=
EXTT11=
PLAYORDER=
